<svg width="24" height="24" viewBox="0 0 24 24" fill="none" xmlns="http://www.w3.org/2000/svg">
<path d="M11 8.80002L8.10005 11.7C7.91672 11.8834 7.68338 11.975 7.40005 11.975C7.11672 11.975 6.88338 11.8834 6.70005 11.7C6.51672 11.5167 6.42505 11.2834 6.42505 11C6.42505 10.7167 6.51672 10.4834 6.70005 10.3L11.3 5.70002C11.5 5.50002 11.7334 5.40002 12 5.40002C12.2667 5.40002 12.5 5.50002 12.7 5.70002L17.3 10.3C17.4834 10.4834 17.575 10.7167 17.575 11C17.575 11.2834 17.4834 11.5167 17.3 11.7C17.1167 11.8834 16.8834 11.975 16.6 11.975C16.3167 11.975 16.0834 11.8834 15.9 11.7L13 8.80002V17C13 17.2834 12.904 17.521 12.712 17.713C12.52 17.905 12.2827 18.0007 12 18C11.7174 17.9994 11.48 17.9034 11.288 17.712C11.096 17.5207 11 17.2834 11 17V8.80002Z" />
</svg>
