<svg width="24" height="24" viewBox="0 0 24 24" fill="none" xmlns="http://www.w3.org/2000/svg">
<path d="M11 8.7999L8.10005 11.6999C7.91672 11.8832 7.68338 11.9749 7.40005 11.9749C7.11672 11.9749 6.88338 11.8832 6.70005 11.6999C6.51672 11.5166 6.42505 11.2832 6.42505 10.9999C6.42505 10.7166 6.51672 10.4832 6.70005 10.2999L11.3 5.6999C11.5 5.4999 11.7334 5.3999 12 5.3999C12.2667 5.3999 12.5 5.4999 12.7 5.6999L17.3 10.2999C17.4834 10.4832 17.575 10.7166 17.575 10.9999C17.575 11.2832 17.4834 11.5166 17.3 11.6999C17.1167 11.8832 16.8834 11.9749 16.6 11.9749C16.3167 11.9749 16.0834 11.8832 15.9 11.6999L13 8.7999V16.9999C13 17.2832 12.904 17.5209 12.712 17.7129C12.52 17.9049 12.2827 18.0006 12 17.9999C11.7174 17.9992 11.48 17.9032 11.288 17.7119C11.096 17.5206 11 17.2832 11 16.9999V8.7999Z" fill="white"/>
</svg>
