<svg width="26" height="26" viewBox="0 0 26 26" fill="none" xmlns="http://www.w3.org/2000/svg">
<path d="M13 22.75C10.2736 22.75 7.96719 21.8064 6.08075 19.9193C4.19431 18.0321 3.25072 15.7257 3.25 13C3.25 10.5084 4.0625 8.34603 5.6875 6.51303C7.3125 4.68003 9.38889 3.61042 11.9167 3.3042C12.1514 3.26809 12.359 3.29987 12.5396 3.39953C12.7201 3.4992 12.8646 3.62992 12.9729 3.7917C13.0813 3.95348 13.1401 4.14306 13.1495 4.36045C13.1589 4.57784 13.091 4.78548 12.9458 4.98337C12.6389 5.45281 12.4085 5.94934 12.2547 6.47295C12.1008 6.99656 12.0243 7.54726 12.025 8.12503C12.025 9.75003 12.5938 11.1313 13.7313 12.2688C14.8688 13.4063 16.25 13.975 17.875 13.975C18.4347 13.975 18.9901 13.8938 19.5412 13.7313C20.0922 13.5688 20.5841 13.3431 21.0167 13.0542C21.2153 12.9278 21.4186 12.8693 21.6266 12.8787C21.8346 12.8881 22.0195 12.9376 22.1813 13.0271C22.3618 13.1174 22.5019 13.2528 22.6016 13.4334C22.7013 13.6139 22.7327 13.8306 22.6958 14.0834C22.4431 16.575 21.3825 18.6424 19.5141 20.2855C17.6457 21.9285 15.4743 22.75 13 22.75Z"/>
</svg>
