<svg width="16" height="16" viewBox="0 0 16 16" fill="none" xmlns="http://www.w3.org/2000/svg">
<path d="M3.33342 13.3334H12.6668C12.8556 13.3334 13.0141 13.3974 13.1421 13.5254C13.2701 13.6534 13.3339 13.8116 13.3334 14C13.333 14.1885 13.269 14.3469 13.1414 14.4754C13.0139 14.6038 12.8556 14.6676 12.6668 14.6667H3.33342C3.14453 14.6667 2.98631 14.6027 2.85875 14.4747C2.73119 14.3467 2.66719 14.1885 2.66675 14C2.66631 13.8116 2.73031 13.6534 2.85875 13.5254C2.98719 13.3974 3.14542 13.3334 3.33342 13.3334ZM8.00008 11.5834C7.90008 11.5834 7.80297 11.5612 7.70875 11.5167C7.61453 11.4723 7.53386 11.4056 7.46675 11.3167L4.16675 7.08337C4.00008 6.86115 3.97786 6.62515 4.10008 6.37537C4.22231 6.1256 4.42231 6.00048 4.70008 6.00004H6.00008V2.00004C6.00008 1.81115 6.06408 1.65293 6.19208 1.52537C6.32008 1.39782 6.47831 1.33382 6.66675 1.33337H9.33342C9.52231 1.33337 9.68075 1.39737 9.80875 1.52537C9.93675 1.65337 10.0005 1.8116 10.0001 2.00004V6.00004H11.3001C11.5779 6.00004 11.7779 6.12515 11.9001 6.37537C12.0223 6.6256 12.0001 6.8616 11.8334 7.08337L8.53342 11.3167C8.46675 11.4056 8.38608 11.4723 8.29142 11.5167C8.19675 11.5612 8.09964 11.5834 8.00008 11.5834Z" />
</svg>
