<svg width="10" height="6" viewBox="0 0 10 6" fill="none" xmlns="http://www.w3.org/2000/svg">
<path d="M4.77293 5.30202L0.84585 1.37494C0.791683 1.32077 0.751239 1.26227 0.724516 1.19943C0.697794 1.1366 0.684072 1.06871 0.68335 0.995768C0.68335 0.851324 0.733183 0.724934 0.83285 0.616601C0.932516 0.508268 1.06324 0.454102 1.22502 0.454102H9.45835C9.62085 0.454102 9.75193 0.508268 9.8516 0.616601C9.95127 0.724934 10.0007 0.851324 10 0.995768C10 1.03188 9.94585 1.15827 9.83752 1.37494L5.91043 5.30202C5.82016 5.3923 5.72988 5.45549 5.6396 5.4916C5.54932 5.52771 5.45002 5.54577 5.34168 5.54577C5.23335 5.54577 5.13404 5.52771 5.04377 5.4916C4.95349 5.45549 4.86321 5.3923 4.77293 5.30202Z" fill="#FFFFFF"/>
</svg>
