<svg width="26" height="26" viewBox="0 0 26 26" fill="none" xmlns="http://www.w3.org/2000/svg">
<path d="M12.4311 15.6812L8.50405 11.7541C8.44989 11.6999 8.40944 11.6414 8.38272 11.5786C8.356 11.5158 8.34227 11.4479 8.34155 11.3749C8.34155 11.2305 8.39139 11.1041 8.49105 10.9958C8.59072 10.8874 8.72144 10.8333 8.88322 10.8333H17.1166C17.2791 10.8333 17.4101 10.8874 17.5098 10.9958C17.6095 11.1041 17.6589 11.2305 17.6582 11.3749C17.6582 11.411 17.6041 11.5374 17.4957 11.7541L13.5686 15.6812C13.4784 15.7714 13.3881 15.8346 13.2978 15.8708C13.2075 15.9069 13.1082 15.9249 12.9999 15.9249C12.8916 15.9249 12.7922 15.9069 12.702 15.8708C12.6117 15.8346 12.5214 15.7714 12.4311 15.6812Z" fill="white"/>
</svg>
