<svg width="26" height="26" viewBox="0 0 26 26" fill="none" xmlns="http://www.w3.org/2000/svg">
<path d="M4.33337 20.5834V10.8334C4.33337 10.4904 4.41029 10.1654 4.56412 9.85842C4.71796 9.55147 4.92993 9.29869 5.20004 9.10008L11.7 4.22508C12.0792 3.93619 12.5125 3.79175 13 3.79175C13.4875 3.79175 13.9209 3.93619 14.3 4.22508L20.8 9.10008C21.0709 9.29869 21.2832 9.55147 21.437 9.85842C21.5909 10.1654 21.6674 10.4904 21.6667 10.8334V20.5834C21.6667 21.1792 21.4544 21.6895 21.0297 22.1142C20.605 22.5388 20.0952 22.7508 19.5 22.7501H16.25C15.9431 22.7501 15.686 22.6461 15.4787 22.4381C15.2714 22.2301 15.1674 21.973 15.1667 21.6667V16.2501C15.1667 15.9431 15.0627 15.686 14.8547 15.4787C14.6467 15.2715 14.3896 15.1675 14.0834 15.1667H11.9167C11.6098 15.1667 11.3527 15.2707 11.1454 15.4787C10.9381 15.6867 10.8341 15.9439 10.8334 16.2501V21.6667C10.8334 21.9737 10.7294 22.2312 10.5214 22.4392C10.3134 22.6472 10.0563 22.7508 9.75004 22.7501H6.50004C5.90421 22.7501 5.39432 22.5381 4.97037 22.1142C4.54643 21.6902 4.3341 21.18 4.33337 20.5834Z" />
</svg>
