<svg width="16" height="16" viewBox="0 0 16 16" fill="none" xmlns="http://www.w3.org/2000/svg">
<path d="M1.99992 14C1.81103 14 1.65281 13.936 1.52525 13.808C1.3977 13.68 1.3337 13.5218 1.33325 13.3333V6.66667C1.33325 6.47778 1.39725 6.31956 1.52525 6.192C1.65325 6.06444 1.81147 6.00044 1.99992 6H4.33325C4.52214 6 4.68059 6.064 4.80859 6.192C4.93659 6.32 5.00036 6.47822 4.99992 6.66667V13.3333C4.99992 13.5222 4.93592 13.6807 4.80792 13.8087C4.67992 13.9367 4.5217 14.0004 4.33325 14H1.99992ZM6.83325 14C6.64436 14 6.48614 13.936 6.35859 13.808C6.23103 13.68 6.16703 13.5218 6.16659 13.3333V2.66667C6.16659 2.47778 6.23059 2.31956 6.35859 2.192C6.48659 2.06444 6.64481 2.00044 6.83325 2H9.16659C9.35547 2 9.51392 2.064 9.64192 2.192C9.76992 2.32 9.8337 2.47822 9.83325 2.66667V13.3333C9.83325 13.5222 9.76925 13.6807 9.64125 13.8087C9.51325 13.9367 9.35503 14.0004 9.16659 14H6.83325ZM11.6666 14C11.4777 14 11.3195 13.936 11.1919 13.808C11.0644 13.68 11.0004 13.5218 10.9999 13.3333V8C10.9999 7.81111 11.0639 7.65289 11.1919 7.52533C11.3199 7.39778 11.4781 7.33378 11.6666 7.33333H13.9999C14.1888 7.33333 14.3473 7.39733 14.4753 7.52533C14.6033 7.65333 14.667 7.81156 14.6666 8V13.3333C14.6666 13.5222 14.6026 13.6807 14.4746 13.8087C14.3466 13.9367 14.1884 14.0004 13.9999 14H11.6666Z" />
</svg>
