<svg width="26" height="26" viewBox="0 0 26 26" fill="none" xmlns="http://www.w3.org/2000/svg">
<path d="M13 18.4166C11.5014 18.4166 10.2242 17.8883 9.16829 16.8317C8.11241 15.7751 7.5841 14.4978 7.58338 12.9999C7.58266 11.502 8.11096 10.2248 9.16829 9.16817C10.2256 8.11156 11.5029 7.58326 13 7.58326C14.4972 7.58326 15.7748 8.11156 16.8329 9.16817C17.8909 10.2248 18.4189 11.502 18.4167 12.9999C18.4145 14.4978 17.8862 15.7754 16.8318 16.8328C15.7774 17.8901 14.5001 18.418 13 18.4166ZM2.16671 14.0833C1.85977 14.0833 1.60266 13.9793 1.39538 13.7713C1.1881 13.5633 1.0841 13.3061 1.08338 12.9999C1.08266 12.6937 1.18666 12.4366 1.39538 12.2286C1.6041 12.0206 1.86121 11.9166 2.16671 11.9166H4.33338C4.64032 11.9166 4.89779 12.0206 5.10579 12.2286C5.31379 12.4366 5.41743 12.6937 5.41671 12.9999C5.41599 13.3061 5.31199 13.5636 5.10471 13.7723C4.89743 13.9811 4.64032 14.0847 4.33338 14.0833H2.16671ZM21.6667 14.0833C21.3598 14.0833 21.1027 13.9793 20.8954 13.7713C20.6881 13.5633 20.5841 13.3061 20.5834 12.9999C20.5827 12.6937 20.6867 12.4366 20.8954 12.2286C21.1041 12.0206 21.3612 11.9166 21.6667 11.9166H23.8334C24.1403 11.9166 24.3978 12.0206 24.6058 12.2286C24.8138 12.4366 24.9174 12.6937 24.9167 12.9999C24.916 13.3061 24.812 13.5636 24.6047 13.7723C24.3974 13.9811 24.1403 14.0847 23.8334 14.0833H21.6667ZM13 5.41659C12.6931 5.41659 12.436 5.31259 12.2287 5.10459C12.0214 4.89659 11.9174 4.63948 11.9167 4.33326V2.16659C11.9167 1.85964 12.0207 1.60253 12.2287 1.39526C12.4367 1.18798 12.6938 1.08398 13 1.08326C13.3063 1.08253 13.5637 1.18653 13.7725 1.39526C13.9812 1.60398 14.0848 1.86109 14.0834 2.16659V4.33326C14.0834 4.6402 13.9794 4.89767 13.7714 5.10567C13.5634 5.31367 13.3063 5.41731 13 5.41659ZM13 24.9166C12.6931 24.9166 12.436 24.8126 12.2287 24.6046C12.0214 24.3966 11.9174 24.1395 11.9167 23.8333V21.6666C11.9167 21.3596 12.0207 21.1025 12.2287 20.8953C12.4367 20.688 12.6938 20.584 13 20.5833C13.3063 20.5825 13.5637 20.6865 13.7725 20.8953C13.9812 21.104 14.0848 21.3611 14.0834 21.6666V23.8333C14.0834 24.1402 13.9794 24.3977 13.7714 24.6057C13.5634 24.8137 13.3063 24.9173 13 24.9166ZM6.12088 7.63742L4.95629 6.49992C4.73963 6.30131 4.63563 6.04853 4.64429 5.74159C4.65296 5.43464 4.75696 5.17284 4.95629 4.95617C5.17296 4.73951 5.43477 4.63117 5.74171 4.63117C6.04866 4.63117 6.30143 4.73951 6.50004 4.95617L7.63754 6.12076C7.83616 6.33742 7.93546 6.5902 7.93546 6.87909C7.93546 7.16798 7.83616 7.42076 7.63754 7.63742C7.43893 7.85409 7.19085 7.95809 6.89329 7.94942C6.59574 7.94076 6.33827 7.83676 6.12088 7.63742ZM19.5 21.0437L18.3625 19.8791C18.1639 19.6624 18.0646 19.4053 18.0646 19.1078C18.0646 18.8102 18.1639 18.5618 18.3625 18.3624C18.5612 18.1458 18.8096 18.0421 19.1079 18.0515C19.4062 18.0609 19.6633 18.1645 19.8792 18.3624L21.0438 19.4999C21.2605 19.6985 21.3645 19.9513 21.3558 20.2583C21.3471 20.5652 21.2431 20.827 21.0438 21.0437C20.8271 21.2603 20.5653 21.3687 20.2584 21.3687C19.9514 21.3687 19.6987 21.2603 19.5 21.0437ZM18.3625 7.63742C18.1459 7.43881 18.0419 7.19073 18.0505 6.89317C18.0592 6.59562 18.1632 6.33814 18.3625 6.12076L19.5 4.95617C19.6987 4.73951 19.9514 4.63551 20.2584 4.64417C20.5653 4.65284 20.8271 4.75684 21.0438 4.95617C21.2605 5.17284 21.3688 5.43464 21.3688 5.74159C21.3688 6.04853 21.2605 6.30131 21.0438 6.49992L19.8792 7.63742C19.6625 7.83603 19.4098 7.93534 19.1209 7.93534C18.832 7.93534 18.5792 7.83603 18.3625 7.63742ZM4.95629 21.0437C4.73963 20.827 4.63129 20.5652 4.63129 20.2583C4.63129 19.9513 4.73963 19.6985 4.95629 19.4999L6.12088 18.3624C6.33754 18.1638 6.59466 18.0645 6.89221 18.0645C7.18977 18.0645 7.43821 18.1638 7.63754 18.3624C7.85421 18.561 7.95821 18.8095 7.94954 19.1078C7.94088 19.406 7.83688 19.6631 7.63754 19.8791L6.50004 21.0437C6.30143 21.2603 6.04866 21.3643 5.74171 21.3557C5.43477 21.347 5.17296 21.243 4.95629 21.0437Z"/>
</svg>
