<svg width="24" height="24" viewBox="0 0 24 24" fill="none" xmlns="http://www.w3.org/2000/svg">
<path d="M8.2999 18.2999L2.6999 12.6999C2.4999 12.4999 2.3999 12.2666 2.3999 11.9999C2.3999 11.7332 2.4999 11.4999 2.6999 11.2999L8.2999 5.6999C8.4999 5.4999 8.73324 5.3999 8.9999 5.3999C9.26657 5.3999 9.4999 5.4999 9.6999 5.6999L14.9999 10.9999H20.9999C21.2832 10.9999 21.5209 11.0959 21.7129 11.2879C21.9049 11.4799 22.0006 11.7172 21.9999 11.9999C21.9992 12.2826 21.9032 12.5202 21.7119 12.7129C21.5206 12.9056 21.2832 13.0012 20.9999 12.9999H14.9999L9.6999 18.2999C9.4999 18.4999 9.26657 18.5999 8.9999 18.5999C8.73324 18.5999 8.4999 18.4999 8.2999 18.2999Z"/>
</svg>
