<svg width="16" height="16" viewBox="0 0 16 16" fill="none" xmlns="http://www.w3.org/2000/svg">
<path d="M4.00008 9.3333C3.63342 9.3333 3.31964 9.20285 3.05875 8.94196C2.79786 8.68107 2.66719 8.36707 2.66675 7.99996C2.6663 7.63285 2.79697 7.31908 3.05875 7.05863C3.32053 6.79819 3.6343 6.66752 4.00008 6.66663C4.36586 6.66574 4.67986 6.79641 4.94208 7.05863C5.2043 7.32085 5.33475 7.63463 5.33342 7.99996C5.33208 8.3653 5.20164 8.6793 4.94208 8.94196C4.68253 9.20463 4.36853 9.33507 4.00008 9.3333ZM8.00008 9.3333C7.63342 9.3333 7.31964 9.20285 7.05875 8.94196C6.79786 8.68107 6.66719 8.36707 6.66675 7.99996C6.6663 7.63285 6.79697 7.31908 7.05875 7.05863C7.32053 6.79819 7.63431 6.66752 8.00008 6.66663C8.36586 6.66574 8.67986 6.79641 8.94208 7.05863C9.20431 7.32085 9.33475 7.63463 9.33342 7.99996C9.33208 8.3653 9.20164 8.6793 8.94208 8.94196C8.68253 9.20463 8.36853 9.33507 8.00008 9.3333ZM12.0001 9.3333C11.6334 9.3333 11.3196 9.20285 11.0587 8.94196C10.7979 8.68107 10.6672 8.36707 10.6667 7.99996C10.6663 7.63285 10.797 7.31908 11.0587 7.05863C11.3205 6.79819 11.6343 6.66752 12.0001 6.66663C12.3659 6.66574 12.6799 6.79641 12.9421 7.05863C13.2043 7.32085 13.3347 7.63463 13.3334 7.99996C13.3321 8.3653 13.2016 8.6793 12.9421 8.94196C12.6825 9.20463 12.3685 9.33507 12.0001 9.3333Z" fill="white"/>
</svg>
