<svg width="26" height="26" viewBox="0 0 26 26" fill="none" xmlns="http://www.w3.org/2000/svg">
<path d="M13 21.6666C10.5806 21.6666 8.53129 20.827 6.85212 19.1478C5.17296 17.4687 4.33337 15.4194 4.33337 12.9999C4.33337 10.5805 5.17296 8.53117 6.85212 6.85201C8.53129 5.17284 10.5806 4.33326 13 4.33326C14.2459 4.33326 15.4375 4.59037 16.575 5.10459C17.7125 5.61881 18.6875 6.35476 19.5 7.31242V5.41659C19.5 5.10964 19.604 4.85253 19.812 4.64526C20.02 4.43798 20.2772 4.33398 20.5834 4.33326C20.8896 4.33253 21.1471 4.43653 21.3558 4.64526C21.5645 4.85398 21.6681 5.11109 21.6667 5.41659V10.8333C21.6667 11.1402 21.5627 11.3977 21.3547 11.6057C21.1467 11.8137 20.8896 11.9173 20.5834 11.9166H15.1667C14.8598 11.9166 14.6027 11.8126 14.3954 11.6046C14.1881 11.3966 14.0841 11.1395 14.0834 10.8333C14.0827 10.527 14.1867 10.2699 14.3954 10.0619C14.6041 9.85392 14.8612 9.74992 15.1667 9.74992H18.6334C18.0556 8.73881 17.2658 7.94437 16.2641 7.36659C15.2624 6.78881 14.1744 6.49992 13 6.49992C11.1945 6.49992 9.65976 7.13187 8.39587 8.39576C7.13198 9.65964 6.50004 11.1944 6.50004 12.9999C6.50004 14.8055 7.13198 16.3402 8.39587 17.6041C9.65976 18.868 11.1945 19.4999 13 19.4999C14.2278 19.4999 15.352 19.1886 16.3725 18.5661C17.393 17.9435 18.1827 17.1083 18.7417 16.0603C18.8862 15.8076 19.0895 15.6317 19.3516 15.5328C19.6138 15.4338 19.8799 15.4291 20.15 15.5187C20.4389 15.609 20.6466 15.7985 20.773 16.0874C20.8993 16.3763 20.8903 16.6471 20.7459 16.8999C20.0056 18.3444 18.9493 19.4999 17.5771 20.3666C16.2049 21.2333 14.6792 21.6666 13 21.6666Z" />
</svg>
