<svg width="16" height="16" viewBox="0 0 16 16" fill="none" xmlns="http://www.w3.org/2000/svg">
<path d="M6.66667 1.99996C6.47778 1.99996 6.31956 1.93596 6.192 1.80796C6.06444 1.67996 6.00044 1.52174 6 1.33329C5.99956 1.14485 6.06356 0.986626 6.192 0.858626C6.32044 0.730626 6.47867 0.666626 6.66667 0.666626H9.33333C9.52222 0.666626 9.68067 0.730626 9.80867 0.858626C9.93667 0.986626 10.0004 1.14485 10 1.33329C9.99956 1.52174 9.93556 1.68018 9.808 1.80863C9.68044 1.93707 9.52222 2.00085 9.33333 1.99996H6.66667ZM8 9.33329C8.18889 9.33329 8.34733 9.26929 8.47533 9.14129C8.60333 9.01329 8.66711 8.85507 8.66667 8.66663V5.99996C8.66667 5.81107 8.60267 5.65285 8.47467 5.52529C8.34667 5.39774 8.18844 5.33374 8 5.33329C7.81156 5.33285 7.65333 5.39685 7.52533 5.52529C7.39733 5.65374 7.33333 5.81196 7.33333 5.99996V8.66663C7.33333 8.85552 7.39733 9.01396 7.52533 9.14196C7.65333 9.26996 7.81156 9.33374 8 9.33329ZM8 14.6666C7.17778 14.6666 6.40267 14.5084 5.67467 14.192C4.94667 13.8755 4.31067 13.4448 3.76667 12.9C3.22267 12.3551 2.79222 11.7188 2.47533 10.9913C2.15844 10.2637 2 9.48885 2 8.66663C2 7.8444 2.15844 7.06929 2.47533 6.34129C2.79222 5.61329 3.22267 4.97729 3.76667 4.43329C4.31067 3.88929 4.94689 3.45885 5.67533 3.14196C6.40378 2.82507 7.17867 2.66663 8 2.66663C8.68889 2.66663 9.35 2.77774 9.98333 2.99996C10.6167 3.22218 11.2111 3.5444 11.7667 3.96663L12.2333 3.49996C12.3556 3.37774 12.5111 3.31663 12.7 3.31663C12.8889 3.31663 13.0444 3.37774 13.1667 3.49996C13.2889 3.62218 13.35 3.77774 13.35 3.96663C13.35 4.15551 13.2889 4.31107 13.1667 4.43329L12.7 4.89996C13.1222 5.45551 13.4444 6.04996 13.6667 6.68329C13.8889 7.31663 14 7.97774 14 8.66663C14 9.48885 13.8416 10.264 13.5247 10.992C13.2078 11.72 12.7773 12.356 12.2333 12.9C11.6893 13.444 11.0531 13.8746 10.3247 14.192C9.59622 14.5093 8.82133 14.6675 8 14.6666ZM8 13.3333C9.28889 13.3333 10.3889 12.8777 11.3 11.9666C12.2111 11.0555 12.6667 9.95552 12.6667 8.66663C12.6667 7.37774 12.2111 6.27774 11.3 5.36663C10.3889 4.45552 9.28889 3.99996 8 3.99996C6.71111 3.99996 5.61111 4.45552 4.7 5.36663C3.78889 6.27774 3.33333 7.37774 3.33333 8.66663C3.33333 9.95552 3.78889 11.0555 4.7 11.9666C5.61111 12.8777 6.71111 13.3333 8 13.3333Z" />
</svg>
