<svg width="24" height="24" viewBox="0 0 24 24" fill="none" xmlns="http://www.w3.org/2000/svg">
<path d="M8.00009 19C7.71675 19 7.47942 18.904 7.28809 18.712C7.09675 18.52 7.00075 18.2827 7.00009 18C6.99942 17.7174 7.09542 17.48 7.28809 17.288C7.48075 17.096 7.71809 17 8.00009 17H14.1001C15.1501 17 16.0628 16.6667 16.8381 16C17.6134 15.3334 18.0008 14.5 18.0001 13.5C17.9994 12.5 17.6121 11.6667 16.8381 11C16.0641 10.3334 15.1514 10 14.1001 10H7.80009L9.70009 11.9C9.88342 12.0834 9.97509 12.3167 9.97509 12.6C9.97509 12.8834 9.88342 13.1167 9.70009 13.3C9.51675 13.4834 9.28342 13.575 9.00009 13.575C8.71675 13.575 8.48342 13.4834 8.30009 13.3L4.70009 9.70005C4.60009 9.60005 4.52909 9.49172 4.48709 9.37505C4.44509 9.25838 4.42475 9.13338 4.42609 9.00005C4.42742 8.86672 4.44842 8.74172 4.48909 8.62505C4.52975 8.50838 4.60009 8.40005 4.70009 8.30005L8.30009 4.70005C8.48342 4.51672 8.71675 4.42505 9.00009 4.42505C9.28342 4.42505 9.51675 4.51672 9.70009 4.70005C9.88342 4.88338 9.97509 5.11672 9.97509 5.40005C9.97509 5.68338 9.88342 5.91672 9.70009 6.10005L7.80009 8.00005H14.1001C15.7168 8.00005 17.1044 8.52505 18.2631 9.57505C19.4218 10.625 20.0008 11.9334 20.0001 13.5C19.9994 15.0667 19.4204 16.375 18.2631 17.425C17.1058 18.475 15.7181 19 14.1001 19H8.00009Z"/>
</svg>
